<?xml version="1.0" standalone="no"?>
<!DOCTYPE svg PUBLIC "-//W3C//DTD SVG 20010904//EN"
 "http://www.w3.org/TR/2001/REC-SVG-20010904/DTD/svg10.dtd">
<svg version="1.0" xmlns="http://www.w3.org/2000/svg"
 width="140.000000pt" height="140.000000pt" viewBox="0 0 140.000000 140.000000"
 preserveAspectRatio="xMidYMid meet">
<metadata>
Created by potrace 1.11, written by Peter Selinger 2001-2013
</metadata>
<g transform="translate(0.000000,140.000000) scale(0.100000,-0.100000)"
fill="#000000" stroke="none">
<path d="M586 1386 c4 -11 -1 -14 -20 -12 -14 2 -26 -1 -26 -7 0 -5 -9 -7 -20
-4 -11 3 -20 1 -20 -4 0 -4 -6 -6 -14 -3 -7 3 -16 -2 -19 -10 -4 -9 -15 -13
-27 -11 -11 2 -20 0 -20 -6 0 -5 -3 -8 -7 -8 -20 3 -34 -2 -29 -10 4 -5 -2 -8
-11 -7 -10 2 -26 -7 -36 -18 -10 -12 -15 -14 -12 -6 4 8 -3 4 -16 -10 -13 -14
-22 -21 -19 -15 3 6 -2 3 -11 -7 -9 -9 -20 -14 -24 -10 -5 4 -5 -1 -2 -10 3
-10 3 -17 -1 -17 -19 3 -30 -2 -36 -17 -3 -8 -2 -12 4 -9 6 3 10 1 10 -4 0 -6
5 -11 11 -11 5 0 7 5 3 12 -5 7 -3 8 7 3 21 -14 60 -15 53 -3 -5 7 -2 8 7 3
21 -14 60 -15 53 -3 -5 7 -2 8 7 2 18 -11 279 -12 272 -1 -3 5 3 4 14 -1 11
-6 33 -9 49 -8 16 2 35 -1 43 -8 12 -9 13 -8 6 3 -6 11 -3 13 13 9 12 -4 25
-2 28 3 3 5 11 6 17 2 7 -4 29 -8 50 -9 71 -3 78 -4 73 -13 -3 -4 7 -8 22 -7
20 1 27 -4 26 -17 -2 -15 1 -16 14 -5 11 9 13 9 9 1 -4 -6 -1 -16 8 -20 8 -5
16 -19 18 -32 2 -12 8 -26 13 -29 5 -4 9 -19 9 -34 -1 -16 3 -28 7 -28 5 0 4
-9 -2 -20 -6 -11 -8 -20 -4 -20 3 0 1 -6 -5 -14 -8 -10 -9 -16 -1 -21 17 -10
11 -25 -7 -18 -16 6 -16 5 -4 -10 10 -13 10 -17 1 -17 -7 0 -10 -7 -6 -16 3
-8 2 -12 -4 -9 -6 3 -10 -3 -10 -13 0 -11 -7 -23 -16 -26 -9 -3 -12 -11 -8
-18 5 -7 2 -9 -8 -5 -11 4 -18 -1 -21 -15 -3 -11 -10 -17 -16 -14 -5 4 -12 -3
-16 -14 -4 -11 -11 -18 -16 -15 -5 4 -9 1 -9 -5 0 -7 -7 -9 -16 -6 -8 3 -13 2
-10 -3 3 -5 -1 -11 -9 -15 -8 -3 -15 0 -16 7 0 7 -4 1 -10 -11 -5 -13 -15 -22
-21 -19 -7 2 -19 -3 -26 -12 -12 -14 -13 -14 -7 4 6 18 4 18 -15 -3 -12 -12
-25 -20 -31 -17 -5 4 -9 1 -9 -4 0 -6 -3 -10 -7 -10 -20 3 -34 -2 -28 -10 3
-6 -3 -8 -15 -6 -11 2 -22 0 -25 -5 -3 -5 -13 -6 -22 -3 -10 4 -14 2 -9 -5 8
-13 -29 -26 -45 -16 -8 4 -9 3 -5 -4 4 -6 -6 -18 -24 -27 -16 -8 -30 -13 -30
-10 0 3 -8 -3 -18 -13 -11 -9 -17 -20 -15 -24 2 -4 -6 -12 -17 -18 -11 -6 -18
-15 -15 -20 3 -4 -1 -11 -7 -13 -10 -4 -10 -6 0 -6 10 -1 10 -6 2 -21 -7 -12
-7 -20 -1 -20 5 0 8 -9 6 -21 -3 -17 0 -20 15 -16 11 3 23 0 27 -5 4 -7 1 -8
-7 -3 -8 5 -11 4 -6 -3 3 -6 16 -8 29 -5 44 10 62 10 75 0 8 -6 12 -6 12 1 0
7 7 9 17 5 12 -5 14 -3 8 8 -5 8 1 5 13 -5 15 -13 22 -15 22 -6 0 7 3 10 7 7
3 -4 12 -2 20 5 11 9 13 8 11 -2 -2 -7 3 -15 11 -18 8 -2 11 0 8 5 -9 14 29 9
47 -6 14 -12 16 -12 10 2 -6 16 10 18 34 4 7 -5 12 -3 12 4 0 7 3 9 7 6 3 -4
12 -2 20 5 11 9 13 8 11 -2 -2 -7 3 -15 11 -18 8 -2 11 0 8 5 -9 14 29 9 47
-6 14 -12 16 -11 10 4 -6 15 -4 16 16 5 15 -8 20 -8 16 -1 -4 6 -2 11 3 11 6
0 11 -4 11 -10 0 -5 5 -10 11 -10 5 0 8 4 5 8 -6 10 55 9 72 -1 7 -5 12 -4 12
3 0 6 4 8 10 5 17 -11 84 -14 102 -4 12 7 20 4 28 -8 9 -14 10 -14 7 -2 -3 9
1 16 9 16 7 0 10 -5 7 -11 -4 -6 0 -5 9 1 8 7 17 11 19 9 2 -2 10 2 17 10 10
11 10 14 1 14 -7 0 -2 11 11 24 13 15 20 32 17 40 -4 9 -2 16 3 16 5 0 7 9 5
21 -3 15 0 19 10 15 9 -3 12 0 8 10 -3 8 0 21 6 28 8 10 9 16 1 21 -6 4 -7 12
-1 24 5 9 6 23 1 31 -5 8 -3 19 5 27 15 15 9 47 -7 37 -6 -4 -3 5 7 19 10 17
13 27 6 32 -6 3 -11 11 -11 16 0 6 4 7 10 4 6 -3 7 1 4 9 -3 9 -11 13 -17 9
-6 -4 -7 -1 -1 8 13 21 14 39 2 39 -6 0 -4 7 3 17 8 9 9 14 3 10 -7 -4 -15 0
-18 9 -3 8 -2 12 4 9 6 -3 7 1 4 9 -3 9 -9 14 -13 11 -4 -2 -7 6 -6 18 1 12
-5 31 -14 41 -9 11 -11 17 -5 13 6 -3 11 0 11 8 0 8 -4 12 -9 9 -4 -3 -8 0 -8
6 0 6 -4 9 -9 6 -5 -4 -7 3 -4 14 3 13 -1 22 -12 26 -13 5 -14 9 -3 15 10 7
10 9 1 9 -7 0 -13 6 -13 13 0 7 -9 23 -19 34 -11 12 -17 24 -13 27 3 4 -2 4
-11 0 -10 -3 -17 -3 -16 2 4 24 -2 36 -16 30 -8 -3 -14 -2 -13 2 2 13 -20 60
-33 68 -8 4 -10 3 -5 -4 12 -20 -6 -13 -25 9 -10 11 -23 18 -28 14 -6 -3 -8 0
-5 8 3 8 0 18 -7 23 -8 4 -10 3 -5 -4 5 -8 2 -10 -8 -6 -9 3 -13 10 -10 15 3
5 -1 9 -10 9 -8 0 -17 6 -19 13 -4 9 -6 8 -6 -2 -1 -9 -7 -7 -21 9 -11 13 -26
20 -35 16 -9 -3 -15 0 -15 9 0 8 -5 15 -11 15 -5 0 -7 -5 -3 -12 8 -13 -11 -3
-40 21 -11 9 -16 10 -12 3 4 -6 -8 -3 -26 7 -33 20 -53 22 -75 8 -7 -5 -13 -4
-13 1 0 5 -18 9 -41 8 -22 -1 -43 2 -46 7 -3 5 -9 3 -13 -4 -7 -10 -12 -10
-26 2 -11 9 -15 9 -10 1 8 -13 -19 -13 -41 1 -9 6 -11 3 -7 -7z m248 -12 c9
-3 16 -11 16 -16 0 -6 -6 -5 -15 2 -8 6 -20 8 -26 4 -8 -4 -9 -3 -5 4 8 14 9
14 30 6z m481 -933 c3 -5 2 -12 -3 -15 -5 -3 -9 1 -9 9 0 17 3 19 12 6z"/>
<path d="M112 1035 c-28 -15 -56 -42 -32 -31 13 6 13 5 0 -6 -9 -7 -14 -22
-12 -33 2 -11 1 -17 -4 -12 -4 4 -13 -7 -19 -25 -7 -22 -7 -35 -1 -40 6 -4 4
-10 -7 -13 -14 -6 -15 -11 -5 -28 10 -19 9 -20 -4 -9 -14 11 -16 7 -14 -38 2
-29 -2 -50 -8 -50 -6 0 -5 -5 2 -12 16 -16 15 -31 0 -22 -9 5 -9 2 1 -9 7 -9
9 -17 3 -17 -6 0 -7 -13 -3 -32 4 -18 6 -50 6 -70 0 -37 9 -50 18 -25 3 6 3
-5 2 -25 -2 -21 1 -38 6 -38 6 0 7 -4 4 -10 -3 -5 1 -25 10 -44 9 -19 18 -43
20 -53 2 -10 4 -20 4 -22 1 -2 7 1 14 7 10 9 13 5 11 -18 -1 -20 3 -30 12 -30
7 0 11 -6 8 -13 -3 -8 7 -22 21 -33 14 -10 25 -25 25 -32 0 -7 4 -10 10 -7 5
3 10 -1 10 -9 0 -9 5 -16 10 -16 6 0 10 -7 10 -16 0 -8 5 -12 10 -9 6 3 10 1
10 -4 0 -6 7 -11 16 -11 8 0 13 -3 11 -7 -6 -10 19 -34 27 -26 3 4 6 1 6 -6 0
-8 6 -11 16 -7 8 3 13 2 10 -2 -4 -7 35 -49 42 -44 9 8 32 0 26 -10 -4 -6 -3
-8 4 -4 6 3 13 2 17 -4 4 -6 11 -8 16 -5 5 4 9 1 9 -6 0 -8 5 -7 17 2 12 10
15 10 9 1 -10 -17 34 -33 53 -18 11 8 13 8 7 -1 -5 -9 0 -13 14 -13 14 0 19
-4 14 -13 -5 -8 -2 -8 9 2 15 12 21 9 18 -11 0 -4 6 -5 14 -2 8 4 15 11 15 17
0 6 7 2 15 -9 11 -14 14 -15 15 -4 0 13 1 13 10 0 5 -8 10 -10 10 -4 0 6 19 8
54 4 30 -3 52 -2 49 2 -2 5 7 6 21 2 18 -4 26 -2 26 7 0 11 2 11 10 -1 8 -13
11 -13 22 -1 11 11 11 13 -1 6 -10 -6 -12 -4 -7 4 6 9 11 9 22 0 11 -9 14 -9
14 1 0 8 3 10 7 7 3 -4 13 -1 21 6 13 10 14 9 7 -3 -7 -12 -6 -13 7 -3 8 7 18
10 21 6 4 -3 7 -1 7 6 0 7 5 9 10 6 6 -3 10 -1 10 5 0 6 5 8 10 5 6 -3 10 -1
10 5 0 6 5 8 10 5 6 -3 10 -1 10 4 0 6 9 11 20 11 11 0 23 6 26 14 3 9 12 12
21 9 12 -5 14 -3 8 7 -6 10 -4 12 9 7 9 -4 15 -3 13 1 -6 9 19 33 27 25 3 -4
6 1 6 10 0 10 5 17 11 17 5 0 7 -5 3 -12 -5 -7 -3 -8 5 -4 7 5 10 10 7 13 -3
4 3 14 14 23 19 17 19 17 -23 16 -23 -1 -45 2 -49 8 -4 6 -11 6 -20 -2 -11 -9
-17 -9 -26 0 -9 9 -12 9 -12 0 0 -9 -5 -10 -19 -3 -10 6 -21 7 -25 4 -11 -11
-36 -12 -36 -2 0 6 -8 5 -20 -1 -12 -6 -20 -7 -20 -1 0 6 -11 6 -30 1 -16 -5
-30 -5 -30 0 0 10 -19 8 -37 -3 -8 -5 -13 -3 -13 3 0 6 -5 8 -12 3 -18 -11
-52 -10 -60 2 -5 6 -8 4 -8 -5 0 -12 -2 -12 -8 -2 -7 9 -15 10 -35 3 -19 -7
-27 -7 -27 0 0 7 -7 8 -17 4 -31 -12 -54 -14 -48 -4 9 13 -9 11 -23 -3 -7 -7
-12 -8 -12 -2 0 5 -17 9 -37 9 -45 -2 -74 5 -68 14 2 4 -2 8 -10 8 -8 0 -12
-4 -9 -8 2 -4 0 -11 -6 -14 -6 -4 -10 -3 -9 2 1 4 1 16 0 26 -1 15 -5 16 -21
7 -11 -6 -19 -7 -18 -3 5 17 -23 53 -35 46 -7 -4 -7 0 2 10 9 11 10 17 2 17
-6 0 -11 14 -11 31 0 16 -4 28 -9 25 -9 -6 -7 46 3 62 3 6 0 13 -6 15 -8 3 -6
6 5 6 9 1 17 6 17 12 0 5 -4 7 -10 4 -6 -3 -10 -1 -10 4 0 6 5 11 11 11 6 0 9
9 6 20 -3 11 -1 18 4 14 5 -3 9 4 9 14 0 11 7 23 16 26 9 4 14 9 11 12 -8 8
25 44 35 38 4 -3 8 2 8 10 0 10 6 13 15 10 10 -4 13 -2 10 8 -3 8 1 21 10 28
10 8 15 9 15 1 0 -6 -5 -11 -12 -11 -6 0 -8 -3 -5 -7 4 -3 19 6 33 21 15 15
32 25 38 23 6 -2 17 3 24 12 11 13 12 13 7 1 -4 -10 -2 -10 8 2 11 14 16 15
27 5 9 -8 11 -8 6 0 -7 13 51 36 67 26 6 -4 7 -1 2 7 -6 10 -3 12 13 8 12 -4
20 -2 16 3 -3 5 0 9 6 9 6 0 9 3 6 8 -2 4 11 7 29 6 24 -1 32 2 29 11 -7 18
16 30 27 14 7 -11 10 -9 15 8 4 15 12 20 26 18 12 -3 18 -2 15 1 -7 7 16 33
24 28 4 -2 14 5 24 16 10 11 15 20 10 20 -4 0 -2 7 5 15 7 8 9 15 4 15 -5 0
-2 5 6 10 11 7 11 10 2 10 -7 0 -10 5 -7 10 4 6 12 7 18 3 7 -3 4 3 -5 14 -10
11 -18 25 -18 32 0 8 -8 11 -20 8 -11 -3 -18 -2 -15 3 3 4 -6 7 -20 6 -14 0
-25 -5 -25 -10 0 -5 -6 -4 -12 1 -7 5 -70 8 -140 7 -73 -1 -128 3 -128 8 0 5
-5 6 -10 3 -6 -4 -7 -11 -4 -17 4 -7 0 -7 -12 0 -11 5 -25 7 -33 4 -9 -3 -11
0 -7 9 4 8 0 5 -8 -5 -15 -18 -21 -15 -17 8 1 5 -4 4 -12 -2 -10 -9 -17 -9
-27 1 -10 10 -12 9 -7 -5 5 -13 1 -15 -21 -10 -15 4 -57 7 -94 6 -38 0 -68 3
-68 8 0 5 -5 6 -10 3 -6 -4 -7 -11 -4 -17 4 -6 0 -6 -13 1 -11 6 -23 8 -25 5
-3 -2 -15 -6 -26 -9 -15 -2 -19 0 -15 11 6 16 6 16 -25 -1z"/>
</g>
</svg>
